<svg xmlns="http://www.w3.org/2000/svg" width="70" height="70" viewBox="0 0 70 70">
    <g fill="#FFF" fill-rule="evenodd">
        <path d="M35 0C15.671 0 0 13.711 0 30.625c0 9.667 5.13 18.272 13.125 23.885v13.714a1 1 0 0 0 1.519.854l13.813-8.381c2.122.35 4.305.553 6.543.553 19.331 0 35-13.711 35-30.625S54.331 0 35 0zm0 56.875a35.4 35.4 0 0 1-7.394-.803l-8.76 5.265a1 1 0 0 1-1.514-.87l.113-8.35C9.551 47.368 4.375 39.52 4.375 30.625c0-14.497 13.711-26.25 30.625-26.25s30.625 11.753 30.625 26.25S51.914 56.875 35 56.875z"/>
        <path d="M45.938 37.188H24.061a2.188 2.188 0 0 0 0 4.374h21.875a2.188 2.188 0 0 0 0-4.374zm4.374-13.126H19.689a2.188 2.188 0 0 0 0 4.375h30.625a2.188 2.188 0 0 0 0-4.375z"/>
    </g>
</svg>
