<svg xmlns="http://www.w3.org/2000/svg" width="66" height="66" viewBox="0 0 66 66">
    <g fill="none" fill-rule="evenodd">
        <path fill="#FFF" d="M46.175 39.438l1.346 4.024a3.109 3.109 0 1 1-5.897 1.974l-1.348-4.022L32.26 44.1l1.346 4.022a3.11 3.11 0 1 1-5.896 1.976l-1.349-4.023-3.886 1.303a3.11 3.11 0 0 1-1.976-5.899l3.888-1.303-2.586-7.716-3.886 1.303a3.11 3.11 0 0 1-3.938-1.963 3.11 3.11 0 0 1 1.961-3.935l3.889-1.304-1.348-4.021a3.11 3.11 0 1 1 5.899-1.974l1.346 4.021 8.017-2.685-1.348-4.022a3.111 3.111 0 0 1 5.9-1.976l1.345 4.024 3.89-1.303a3.11 3.11 0 1 1 1.973 5.898l-3.886 1.302 2.583 7.717 3.89-1.303a3.11 3.11 0 1 1 1.974 5.899l-3.887 1.301zM27.7 30.484l2.583 7.716 8.018-2.685-2.584-7.716-8.017 2.685z"/>
        <path stroke="#FFF" stroke-width="5" d="M24.753 5.512C4.137 11.695-.674 20.63 5.51 41.247c6.186 20.616 15.12 25.427 35.736 19.242 20.618-6.186 25.427-15.12 19.241-35.736C54.305 4.135 45.37-.674 24.753 5.512z"/>
    </g>
</svg>
