<svg xmlns="http://www.w3.org/2000/svg" width="102" height="72" viewBox="0 0 102 72">
    <g fill="none" fill-rule="evenodd">
        <text fill="#FFF" font-family="OpenSans-Light, Open Sans" font-size="27.75" font-weight="300" transform="translate(-1)">
            <tspan x="0" y="54.75">Slack</tspan> <tspan x="62.708" y="54.75" font-family="OpenSans-Bold, Open Sans" font-weight="bold" letter-spacing="-1.5">G</tspan> <tspan x="81.303" y="54.75" font-family="OpenSans-Bold, Open Sans" font-weight="bold">O</tspan>
        </text>
        <path stroke="#F9F9F9" stroke-linecap="square" stroke-width=".75" d="M63.604 70.875h37.294"/>
        <g fill-rule="nonzero">
            <path fill="#15B794" d="M47.082 17.643l3.669 5.298 6.3-9.096c2.361-3.15 2.026-8.407-.733-11.165l.266-.265-.265.265a7.882 7.882 0 0 0-8.944-1.548c.43.296.84.635 1.224 1.018l-.265.265.265-.265c3.023 3.024 3.386 8.698.81 12.133l-2.327 3.36z"/>
            <path fill="#EF5350" d="M38.832 17.643l3.669 5.298 6.3-9.096c2.361-3.15 2.026-8.407-.733-11.165l.266-.265-.265.265a7.882 7.882 0 0 0-8.944-1.548c.43.296.84.635 1.224 1.018l-.265.265.265-.265c3.023 3.024 3.386 8.698.81 12.133l-2.327 3.36z"/>
            <path fill="#20638B" d="M30.582 17.643l3.669 5.298 6.3-9.096c2.361-3.15 2.026-8.407-.733-11.165l.266-.265-.265.265a7.882 7.882 0 0 0-8.944-1.548c.43.296.84.635 1.224 1.018l-.265.265.265-.265c3.023 3.024 3.386 8.698.81 12.133l-2.327 3.36z"/>
            <path fill="#82D3E0" d="M22.332 17.643l3.669 5.298 6.3-9.096c2.361-3.15 2.026-8.407-.733-11.165l.266-.265-.265.265a7.882 7.882 0 0 0-8.944-1.548c.43.296.84.635 1.224 1.018l-.265.265.265-.265c3.023 3.024 3.386 8.698.81 12.133l-2.327 3.36z"/>
            <path fill="#EDB724" d="M23.319 2.68a7.879 7.879 0 0 0-11.138 0c-2.758 2.759-3.093 8.015-.722 11.176l6.292 9.085 6.3-9.096c2.361-3.15 2.026-8.407-.733-11.165l.266-.265-.265.265z"/>
        </g>
    </g>
</svg>
