<svg xmlns="http://www.w3.org/2000/svg" width="168" height="61" viewBox="0 0 168 61">
    <defs>
        <linearGradient id="a" x1="60.157%" x2="33.558%" y1="91.848%" y2="-59.589%">
            <stop offset="0%" stop-color="#D6FFA1"/>
            <stop offset="32.64%" stop-color="#93E2A7"/>
            <stop offset="100%" stop-color="#00A3B5"/>
        </linearGradient>
        <linearGradient id="b" x1="-32.172%" x2="80.167%" y1="-129.736%" y2="113.998%">
            <stop offset="0%" stop-color="#FF177B"/>
            <stop offset="67.21%" stop-color="#FFA976"/>
            <stop offset="100%" stop-color="#FFEC73"/>
        </linearGradient>
        <linearGradient id="c" x1="50.819%" x2="-.029%" y1="74.663%" y2="-29.336%">
            <stop offset="0%" stop-color="#63FFD4"/>
            <stop offset="48.54%" stop-color="#32A0BA"/>
            <stop offset="83.49%" stop-color="#1262A9"/>
            <stop offset="100%" stop-color="#064AA2"/>
        </linearGradient>
        <linearGradient id="d" x1="119.508%" x2="-23.112%" y1="35.535%" y2="61.013%">
            <stop offset="0%" stop-color="#FF4521"/>
            <stop offset="34.11%" stop-color="#D43E65"/>
            <stop offset="79.35%" stop-color="#9F36B9"/>
            <stop offset="100%" stop-color="#8A33DB"/>
        </linearGradient>
    </defs>
    <g fill="none" fill-rule="evenodd">
        <rect width="168" height="61" fill="#111420" rx="3.816"/>
        <path d="M25.511 38.76l4.284-4.32-4.284 4.32-13.81-13.725L25.51 38.76l-13.81 13.725L25.51 38.76l4.348 4.321z"/>
        <path fill="url(#a)" d="M18.926 9.658L2.11.508C1.662.254 1.215.191.831.318l13.81 13.661 4.285-4.32z" transform="translate(10.87 24.781)"/>
        <path fill="url(#b)" d="M18.99 18.3l5.754-3.114c1.151-.635 1.151-1.652 0-2.287L18.99 9.722l-4.348 4.257L18.99 18.3z" transform="translate(10.87 24.781)"/>
        <path fill="url(#c)" d="M.831.254C.32.444 0 .954 0 1.716v24.527c0 .762.32 1.27.831 1.461l13.81-13.725L.832.254z" transform="translate(10.87 24.781)"/>
        <path fill="url(#d)" d="M.831 27.704c.384.127.831.064 1.279-.19L18.926 18.3l-4.284-4.32L.832 27.703z" transform="translate(10.87 24.781)"/>
        <g fill="#FFF">
            <path d="M150.077 49.562l7.211-16.52h-2.349l-3.335 8.237h-.047l-3.429-8.237h-2.349l4.745 10.74-2.678 5.78h2.231M140.025 33.042c-2.886 0-4.27 1.711-4.67 2.752l1.971.832c.4-1.064 1.549-1.642 2.746-1.642 1.619 0 3.003 1.04 3.003 2.753v.324c-.446-.255-1.572-.695-3.12-.695-2.7 0-5.045 1.388-5.045 3.955 0 2.36 1.947 3.794 4.293 3.794 1.971 0 3.145-.995 3.778-1.943h.094v1.572h2.065v-6.846c0-3.191-2.3-4.856-5.115-4.856zm-.47 10.13c-1.126 0-2.393-.602-2.393-1.804 0-1.041.892-2.243 3.168-2.243 1.83 0 2.745.74 2.745.74 0 1.85-1.807 3.307-3.52 3.307zM131.713 28.594h1.918v16.52h-1.918zM124.592 28.594h-5.667v16.52h2.137v-6.69h3.53c2.764 0 5.203-2.031 5.203-4.915s-2.44-4.915-5.203-4.915zm.046 7.799h-3.576v-5.768h3.576c1.905 0 2.973 1.568 2.973 2.884 0 1.315-1.068 2.884-2.973 2.884zM103.89 39.489a3.076 3.076 0 0 1 2.969-3.24c.99 0 1.828.484 2.108 1.177l-5.077 2.063zm3.162 5.723c2.603 0 4.108-1.558 4.732-2.462l-1.935-1.263c-.646.926-1.528 1.537-2.797 1.537-1.269 0-2.173-.569-2.753-1.684l7.593-3.072-.258-.631c-.474-1.241-1.915-3.535-4.861-3.535-2.926 0-5.356 2.252-5.356 5.555 0 3.114 2.409 5.555 5.635 5.555zM97.717 44.875h2.495V28.548h-2.495zM90.597 50.198c-2.753 0-4.41-1.81-5.034-3.282l2.173-.884c.387.905 1.334 1.978 2.861 1.978 1.871 0 3.033-1.136 3.033-3.261v-.8h-.086c-.56.673-1.635 1.263-2.99 1.263-2.84 0-5.442-2.42-5.442-5.534 0-3.135 2.603-5.576 5.442-5.576 1.355 0 2.43.59 2.99 1.242h.086v-.905h2.366v9.973c0 4.103-2.474 5.786-5.399 5.786zm.172-7.174c1.7 0 3.033-1.41 3.033-3.346 0-1.957-1.334-3.387-3.033-3.387-1.721 0-3.162 1.43-3.162 3.387 0 1.936 1.441 3.346 3.162 3.346zM78.38 45.212c-3.141 0-5.7-2.357-5.7-5.555 0-3.22 2.559-5.555 5.7-5.555 3.14 0 5.7 2.336 5.7 5.555 0 3.198-2.56 5.555-5.7 5.555zm0-2.188c1.72 0 3.204-1.39 3.204-3.367 0-2-1.484-3.366-3.205-3.366-1.72 0-3.205 1.367-3.205 3.366 0 1.978 1.484 3.367 3.205 3.367zM65.947 45.212c-3.14 0-5.701-2.357-5.701-5.555 0-3.22 2.56-5.555 5.7-5.555 3.141 0 5.7 2.336 5.7 5.555 0 3.198-2.559 5.555-5.7 5.555zm0-2.188c1.72 0 3.205-1.39 3.205-3.367 0-2-1.485-3.366-3.205-3.366-1.722 0-3.205 1.367-3.205 3.366 0 1.978 1.483 3.367 3.205 3.367zM51.147 45.212c2.625 0 4.604-.842 6.152-2.42 1.592-1.557 2.087-3.745 2.087-5.513 0-.546-.043-1.052-.13-1.472h-8.109v2.356h5.765c-.172 1.326-.623 2.293-1.312 2.967-.839.82-2.151 1.725-4.453 1.725-3.549 0-6.324-2.798-6.324-6.27 0-3.471 2.775-6.27 6.324-6.27 1.915 0 3.313.736 4.346 1.683l1.699-1.662c-1.441-1.347-3.356-2.378-6.045-2.378-4.86 0-8.948 3.872-8.948 8.627 0 4.755 4.087 8.627 8.948 8.627z"/>
        </g>
        <path fill="#FFF" d="M48.577 19.268a2.325 2.325 0 0 1-.847.668 3.76 3.76 0 0 1-.774.263 4.66 4.66 0 0 1-1.061.107c-.457 0-.875-.078-1.257-.234a2.723 2.723 0 0 1-.981-.675 3.08 3.08 0 0 1-.637-1.087 4.426 4.426 0 0 1-.227-1.474v-.477c0-.55.068-1.04.204-1.472.137-.432.333-.797.59-1.094a2.5 2.5 0 0 1 .939-.68c.37-.156.79-.234 1.259-.234.443 0 .829.057 1.159.171.33.115.607.274.834.48.226.205.404.449.534.732s.217.593.26.93h-1.239a2.11 2.11 0 0 0-.15-.52 1.268 1.268 0 0 0-.287-.413 1.296 1.296 0 0 0-.45-.273 1.83 1.83 0 0 0-.636-.1c-.297 0-.554.055-.772.165-.218.109-.4.269-.545.479-.144.21-.253.468-.324.774a4.608 4.608 0 0 0-.108 1.045v.487c0 .397.044.748.13 1.054.087.307.21.564.372.772.162.209.358.368.59.477.231.11.494.164.787.164.216 0 .402-.014.557-.042.154-.029.285-.064.392-.107a1.16 1.16 0 0 0 .43-.288V17.45h-1.5v-.953h2.758v2.77zm5.64-2.288h-2.988v2.223h3.492v1.003h-4.755v-7.228h4.72v1.013H51.23v1.996h2.988v.993zm6.788-2.989h-2.268v6.215h-1.254v-6.215h-2.247v-1.013h5.769v1.013zm4.835 6.215h-1.258v-7.228h1.258v7.228zm6.809-6.215H70.38v6.215h-1.254v-6.215H66.88v-1.013h5.77v1.013zm9.306 2.79c0 .55-.073 1.042-.218 1.477a3.211 3.211 0 0 1-.611 1.107c-.263.303-.58.535-.95.697-.37.162-.779.244-1.228.244-.447 0-.854-.082-1.224-.244a2.725 2.725 0 0 1-.957-.697 3.206 3.206 0 0 1-.624-1.107 4.568 4.568 0 0 1-.222-1.477v-.367c0-.55.074-1.043.222-1.48.148-.437.355-.807.62-1.112.264-.304.581-.537.95-.7.37-.162.778-.243 1.225-.243.45 0 .86.081 1.231.243.371.163.69.396.954.7.265.305.47.675.614 1.112.145.437.218.93.218 1.48v.367zm-1.264-.377c0-.404-.04-.76-.117-1.07a2.275 2.275 0 0 0-.343-.777 1.48 1.48 0 0 0-.552-.474 1.655 1.655 0 0 0-.741-.161c-.27 0-.513.053-.73.16-.216.108-.4.267-.552.475a2.313 2.313 0 0 0-.35.777c-.08.31-.122.666-.122 1.07v.377c0 .404.041.761.123 1.072.081.311.199.572.352.782.153.21.339.37.557.477.218.107.462.161.732.161.56 0 .99-.212 1.29-.635.302-.424.453-1.043.453-1.857v-.377zm8.292 3.802h-1.264l-3.242-5.128v5.128h-1.263v-7.228h1.263l3.252 5.148v-5.148h1.254v7.228z"/>
    </g>
</svg>
