<svg xmlns="http://www.w3.org/2000/svg" width="168" height="61" viewBox="0 0 168 61">
    <g fill="none" fill-rule="evenodd">
        <rect width="168" height="61" fill="#111420" rx="3.816"/>
        <g fill="#FFF">
            <path d="M35.729 29.919c-.037-4.077 3.358-6.06 3.514-6.152-1.923-2.787-4.904-3.167-5.951-3.198-2.504-.261-4.932 1.489-6.207 1.489-1.301 0-3.265-1.463-5.381-1.42-2.724.041-5.272 1.608-6.67 4.042-2.883 4.962-.732 12.253 2.03 16.264 1.383 1.964 2.998 4.157 5.112 4.08 2.068-.084 2.84-1.31 5.336-1.31 2.473 0 3.199 1.31 5.354 1.26 2.22-.034 3.617-1.972 4.951-3.954 1.597-2.251 2.239-4.469 2.264-4.582-.052-.018-4.31-1.633-4.352-6.52zM31.656 17.931c1.112-1.382 1.874-3.263 1.662-5.172-1.61.071-3.623 1.107-4.783 2.459-1.025 1.191-1.942 3.144-1.705 4.98 1.809.135 3.665-.906 4.826-2.267z"/>
        </g>
        <g fill="#FFF">
            <path d="M65.659 44.742h-2.89l-1.584-4.944h-5.503l-1.508 4.944H51.36l5.452-16.832h3.368l5.479 16.832zm-4.951-7.018l-1.432-4.395c-.151-.45-.435-1.507-.854-3.171h-.05c-.168.716-.436 1.773-.805 3.17l-1.406 4.396h4.547zM79.68 38.524c0 2.065-.561 3.696-1.684 4.894-1.005 1.066-2.254 1.599-3.744 1.599-1.609 0-2.764-.575-3.468-1.723h-.051v6.394h-2.714V36.6c0-1.298-.034-2.63-.1-3.996h2.386l.152 1.924h.05c.905-1.45 2.279-2.173 4.122-2.173 1.44 0 2.643.565 3.605 1.697.965 1.134 1.446 2.624 1.446 4.471zm-2.764.1c0-1.182-.268-2.156-.805-2.923-.586-.799-1.374-1.199-2.362-1.199-.67 0-1.278.223-1.821.662A3.065 3.065 0 0 0 70.86 36.9a3.51 3.51 0 0 0-.126.823v2.023c0 .883.273 1.628.817 2.236.545.609 1.253.912 2.123.912 1.022 0 1.817-.392 2.386-1.173.57-.783.856-1.815.856-3.098zM93.727 38.524c0 2.065-.562 3.696-1.685 4.894-1.005 1.066-2.253 1.599-3.743 1.599-1.61 0-2.765-.575-3.467-1.723h-.051v6.394h-2.714V36.6c0-1.298-.034-2.63-.1-3.996h2.386l.152 1.924h.05c.904-1.45 2.277-2.173 4.122-2.173 1.439 0 2.642.565 3.606 1.697.961 1.134 1.444 2.624 1.444 4.471zm-2.765.1c0-1.182-.268-2.156-.805-2.923-.587-.799-1.372-1.199-2.361-1.199-.67 0-1.278.223-1.823.662-.544.443-.9 1.02-1.066 1.736a3.579 3.579 0 0 0-.126.823v2.023c0 .883.272 1.628.814 2.236.545.608 1.253.912 2.126.912 1.022 0 1.817-.392 2.386-1.173.57-.783.855-1.815.855-3.098zM109.432 40.022c0 1.432-.5 2.597-1.505 3.496-1.103.983-2.64 1.473-4.613 1.473-1.823 0-3.284-.349-4.39-1.048l.629-2.248a7.473 7.473 0 0 0 3.922 1.075c1.022 0 1.818-.23 2.39-.688.568-.458.852-1.072.852-1.839 0-.683-.234-1.258-.704-1.725-.467-.467-1.247-.9-2.336-1.301-2.966-1.1-4.447-2.71-4.447-4.827 0-1.384.519-2.518 1.559-3.4 1.036-.885 2.418-1.326 4.146-1.326 1.541 0 2.822.266 3.844.799l-.679 2.198c-.954-.516-2.033-.774-3.241-.774-.955 0-1.7.234-2.235.7-.452.416-.678.923-.678 1.524 0 .665.258 1.215.777 1.648.452.4 1.273.832 2.464 1.299 1.457.583 2.528 1.264 3.216 2.046.686.78 1.029 1.754 1.029 2.918zM118.403 34.629h-2.991v5.893c0 1.498.527 2.247 1.583 2.247.485 0 .887-.042 1.205-.125l.076 2.048c-.535.198-1.239.298-2.11.298-1.072 0-1.91-.325-2.514-.974-.602-.65-.905-1.74-.905-3.272v-6.118h-1.782v-2.023h1.782V30.38l2.665-.799v3.022h2.99v2.026zM131.897 38.574c0 1.865-.537 3.397-1.609 4.595-1.123 1.233-2.615 1.848-4.474 1.848-1.792 0-3.219-.591-4.283-1.772-1.064-1.182-1.596-2.673-1.596-4.47 0-1.88.547-3.421 1.646-4.62 1.096-1.198 2.574-1.798 4.434-1.798 1.792 0 3.234.59 4.322 1.774 1.04 1.147 1.56 2.628 1.56 4.443zm-2.815.087c0-1.12-.24-2.08-.728-2.88-.569-.969-1.382-1.452-2.436-1.452-1.09 0-1.92.485-2.488 1.452-.487.802-.728 1.777-.728 2.93 0 1.12.24 2.08.728 2.88.587.968 1.406 1.451 2.464 1.451 1.036 0 1.85-.493 2.436-1.477.5-.816.752-1.786.752-2.904zM140.717 34.977a4.74 4.74 0 0 0-.855-.075c-.955 0-1.693.358-2.212 1.075-.452.633-.679 1.432-.679 2.397v6.368h-2.712l.026-8.315a65.58 65.58 0 0 0-.102-3.82h2.363l.1 2.322h.075c.286-.798.738-1.441 1.356-1.923.605-.434 1.258-.65 1.962-.65.25 0 .477.018.678.05v2.57zM152.852 38.1c0 .483-.032.89-.1 1.223h-8.14c.032 1.199.426 2.116 1.182 2.748.686.565 1.573.849 2.662.849 1.205 0 2.305-.191 3.294-.575l.425 1.872c-1.156.501-2.52.75-4.094.75-1.894 0-3.38-.554-4.462-1.66-1.08-1.107-1.62-2.593-1.62-4.458 0-1.83.502-3.354 1.509-4.57 1.054-1.297 2.478-1.946 4.27-1.946 1.76 0 3.092.65 3.997 1.947.717 1.03 1.077 2.306 1.077 3.82zm-2.587-.7c.017-.8-.16-1.49-.527-2.073-.47-.75-1.191-1.124-2.163-1.124-.887 0-1.608.365-2.16 1.099-.451.583-.72 1.282-.802 2.097h5.652v.001z"/>
        </g>
        <g fill="#FFF">
            <path d="M59.81 17.555c0 1.489-.449 2.61-1.346 3.362-.83.695-2.012 1.042-3.542 1.042-.758 0-1.407-.033-1.95-.098v-8.134a14.485 14.485 0 0 1 2.296-.172c1.458 0 2.556.315 3.297.945.83.712 1.246 1.73 1.246 3.055zm-1.406.037c0-.965-.257-1.705-.77-2.221-.515-.515-1.266-.773-2.255-.773-.42 0-.777.028-1.074.086v6.184c.164.025.464.037.901.037 1.02 0 1.809-.283 2.363-.847.555-.564.835-1.386.835-2.466zM67.267 18.856c0 .917-.263 1.668-.79 2.257-.552.606-1.284.908-2.198.908-.88 0-1.582-.29-2.105-.871-.522-.58-.783-1.313-.783-2.196 0-.923.269-1.68.808-2.269.54-.588 1.266-.883 2.18-.883.88 0 1.588.29 2.123.87.51.565.765 1.293.765 2.184zm-1.383.043c0-.55-.12-1.022-.358-1.416-.28-.475-.678-.713-1.196-.713-.536 0-.943.238-1.223.713-.24.394-.358.873-.358 1.44 0 .55.12 1.022.358 1.415.289.475.691.713 1.21.713.51 0 .909-.241 1.197-.726.246-.4.37-.876.37-1.426zM77.266 15.924l-1.878 5.962h-1.221l-.778-2.589a19.278 19.278 0 0 1-.482-1.926h-.025a14.03 14.03 0 0 1-.482 1.926l-.826 2.589h-1.236l-1.765-5.962h1.37l.68 2.834c.163.67.298 1.31.406 1.914h.025c.099-.499.263-1.133.495-1.901l.851-2.846h1.087l.816 2.785c.197.68.357 1.333.48 1.963h.038c.09-.613.226-1.267.407-1.963l.728-2.785h1.31v-.001zM84.18 21.886h-1.334v-3.415c0-1.052-.402-1.578-1.209-1.578-.396 0-.715.144-.963.433-.246.29-.37.632-.37 1.022v3.537H78.97v-4.258c0-.523-.017-1.091-.049-1.706h1.173l.062.932h.037a1.92 1.92 0 0 1 .69-.72 2.265 2.265 0 0 1 1.21-.334c.56 0 1.026.18 1.396.54.46.441.691 1.1.691 1.975v3.572zM87.858 21.886h-1.332v-8.698h1.332zM95.71 18.856c0 .917-.263 1.668-.79 2.257-.552.606-1.285.908-2.198.908-.882 0-1.583-.29-2.105-.871-.521-.58-.782-1.313-.782-2.196 0-.923.268-1.68.808-2.269.54-.588 1.265-.883 2.177-.883.882 0 1.589.29 2.126.87.509.565.765 1.293.765 2.184zm-1.384.043c0-.55-.12-1.022-.358-1.416-.278-.475-.678-.713-1.195-.713-.537 0-.944.238-1.223.713-.239.394-.357.873-.357 1.44 0 .55.12 1.022.357 1.415.29.475.691.713 1.21.713.51 0 .908-.241 1.196-.726.248-.4.37-.876.37-1.426zM102.166 21.886h-1.198l-.1-.687h-.036c-.41.548-.994.822-1.752.822-.567 0-1.025-.18-1.37-.54-.313-.326-.47-.732-.47-1.214 0-.728.306-1.284.92-1.668.614-.385 1.477-.573 2.588-.564v-.112c0-.785-.415-1.177-1.246-1.177-.592 0-1.114.148-1.564.441l-.271-.87c.557-.343 1.246-.515 2.058-.515 1.568 0 2.354.822 2.354 2.467v2.195c0 .596.03 1.07.087 1.422zm-1.385-2.049v-.92c-1.471-.025-2.207.376-2.207 1.202 0 .311.084.544.256.7.172.155.39.232.652.232.292 0 .566-.092.816-.275a1.129 1.129 0 0 0 .483-.939zM109.745 21.886h-1.184l-.062-.957h-.037c-.378.728-1.022 1.092-1.927 1.092-.723 0-1.325-.282-1.802-.846-.477-.564-.715-1.296-.715-2.195 0-.966.258-1.747.777-2.344.503-.557 1.119-.835 1.852-.835.806 0 1.37.27 1.69.81h.026v-3.423h1.335v7.092c0 .58.015 1.115.047 1.606zm-1.382-2.514v-.995a1.94 1.94 0 0 0-.037-.417 1.508 1.508 0 0 0-.483-.803 1.316 1.316 0 0 0-.892-.325c-.497 0-.887.196-1.173.59-.284.393-.428.895-.428 1.508 0 .59.136 1.068.41 1.436.289.392.678.588 1.166.588.437 0 .787-.163 1.053-.49.258-.303.384-.667.384-1.092zM121.152 18.856c0 .917-.264 1.668-.79 2.257-.553.606-1.283.908-2.198.908-.88 0-1.581-.29-2.105-.871-.522-.58-.783-1.313-.783-2.196 0-.923.268-1.68.808-2.269.54-.588 1.265-.883 2.18-.883.88 0 1.588.29 2.123.87.509.565.765 1.293.765 2.184zm-1.382.043c0-.55-.12-1.022-.358-1.416-.281-.475-.678-.713-1.198-.713-.534 0-.941.238-1.223.713-.239.394-.357.873-.357 1.44 0 .55.12 1.022.357 1.415.29.475.691.713 1.21.713.51 0 .91-.241 1.198-.726.246-.4.37-.876.37-1.426zM128.323 21.886h-1.332v-3.415c0-1.052-.402-1.578-1.21-1.578-.396 0-.716.144-.963.433-.246.29-.37.632-.37 1.022v3.537h-1.335v-4.258c0-.523-.015-1.091-.047-1.706h1.17l.063.932h.037a1.94 1.94 0 0 1 .691-.72 2.27 2.27 0 0 1 1.21-.334c.56 0 1.025.18 1.395.54.462.441.691 1.1.691 1.975v3.572zM137.3 16.917h-1.469v2.896c0 .736.261 1.104.778 1.104.239 0 .437-.02.594-.062l.034 1.006c-.263.098-.61.148-1.036.148-.526 0-.936-.16-1.233-.478-.298-.32-.445-.855-.445-1.608v-3.006h-.877v-.993h.877V14.83l1.307-.392v1.483h1.468v.995h.002zM144.36 21.886h-1.334v-3.39c0-1.068-.403-1.603-1.208-1.603-.619 0-1.041.31-1.273.93-.04.13-.062.289-.062.476v3.586h-1.333v-8.697h1.333v3.593h.025c.42-.654 1.022-.98 1.802-.98.553 0 1.01.18 1.372.54.452.45.679 1.117.679 2v3.545zM151.644 18.623c0 .238-.018.437-.05.6h-4c.018.59.21 1.039.58 1.35.338.278.775.418 1.31.418.591 0 1.13-.094 1.617-.283l.209.921c-.57.246-1.239.368-2.014.368-.929 0-1.66-.272-2.19-.815-.532-.544-.796-1.274-.796-2.19 0-.9.246-1.648.741-2.245.517-.637 1.216-.956 2.098-.956.862 0 1.518.319 1.96.956.358.506.535 1.132.535 1.876zm-1.272-.343a1.776 1.776 0 0 0-.259-1.018c-.231-.368-.584-.553-1.061-.553-.435 0-.79.18-1.062.54a2 2 0 0 0-.395 1.031h2.777z"/>
        </g>
    </g>
</svg>
